. 
  
http://www.torrenting.com/        :     Greatest Movie Tracker on The Net!!!
 
http://www.Torrenting.com          :     Once & For all ;)


               www . Torrenting . Com 

(((((((((((((= Enjoy No RAR releases =))))))))))))))))))))


...................................NFO:....................................

.                                                                                                     
       
     
     
       
       
     
     
                                         
                                         
                EXVID                    
                                         
         
                                         
         Filled the Archives             
                                         
         
                                         
                With:                    
                                         
         
                                         
                                    
     E240                           
                                    
     SP               (C) 2009      
                                         
     
     
     
                                                                                  
                                                                                   
                   Cut.Loose.2008.DVDRip.XviD-EXViD                                 
                                                                                   
                                                                                  
     
                                                                                               
EXViD aims to iNTERNAL those releases which have been lost in the archives.
EXViD aims to PRE non-internal releases which have poor sources and are likely skipped by others.
 
http://www.imdb.com/title/tt1086214/
Subtitles: NL FD, NL, FR, EN
Date: 2011.09

Director: Jan Verheyen

Genres: Drama

Plot:
Tom, a young and idealistic left wing journalist, is about to settle with his girl friend when
his life and views get shaken up by the young and beautiful Pakistani refugee Nadia. At work his
ideals are more and more confronted with the harsh reality of modern urban society, while his
flamboyant grandfather fights his last personal battle - a battle for his right to die. Cut Loose
is a funny, heartfelt and emotional film about very serious issues. Cut Loose is the first comedy
about euthanasia and the confusions of the multicultural society.

Cast:
Chayb Abdeslam 	 ... 	 Marokkaanse man 1 
Sougaipov Abouezed 	 ... 	 Vacha 
Raisa Akijeva 	 ... 	 Raisa 
Achmed Akkabi 	 ... 	 Jamal 
Cem Akkanat 		
Johan Albert 	 ... 	 Bodyguard den Beer 
Ato Amissa 	 ... 	 Kwesi 
Mohamed Azzaoui 	 ... 	 Buitenwipper 1 
Nadine Bastiaens 	 ... 	 Lezer 2 
Lindsay Bervoets 	 ... 	 Griet 
Griet Boels 		
Warre Borgmans 		
Dirk Boyez 	 ... 	 Lezer 1 
Jan de Bruyne 	 ... 	 Dokter 2 
Pepijn Caudron 	 ... 	 Tom

Stats:
Format                           : AVI
Format/Info                      : Audio Video Interleave
File size                        : 701 MiB
Duration                         : 1h 40mn
Overall bit rate                 : 971 Kbps
Writing application              : VirtualDubMod 1.5.10.2 (build 2540/release)
Writing library                  : VirtualDubMod build 2540/release

Video
ID                               : 0
Format                           : MPEG-4 Visual
Format profile                   : Advanced Simple@L5
Format settings, BVOP            : Yes
Format settings, QPel            : No
Format settings, GMC             : No warppoints
Format settings, Matrix          : Default (H.263)
Muxing mode                      : Packed bitstream
Codec ID                         : XVID
Codec ID/Hint                    : XviD
Duration                         : 1h 40mn
Bit rate                         : 828 Kbps
Width                            : 640 pixels
Height                           : 272 pixels
Display aspect ratio             : 2.35:1
Frame rate                       : 25.000 fps
Color space                      : YUV
Chroma subsampling               : 4:2:0
Bit depth                        : 8 bits
Scan type                        : Progressive
Bits/(Pixel*Frame)               : 0.190
Stream size                      : 598 MiB (85%)
Writing library                  : XviD 62

Audio
ID                               : 1
Format                           : MPEG Audio
Format version                   : Version 1
Format profile                   : Layer 3
Mode                             : Joint stereo
Mode extension                   : MS Stereo
Codec ID                         : 55
Codec ID/Hint                    : MP3
Duration                         : 1h 40mn
Bit rate mode                    : Variable
Bit rate                         : 128 Kbps
Channel(s)                       : 2 channels
Sampling rate                    : 48.0 KHz
Stream size                      : 93.7 MiB (13%)
Alignment                        : Aligned on interleaves
Interleave, duration             : 24 ms (0.60 video frame)
Interleave, preload duration     : 141 ms
Writing library                  : LAME3.90.
Encoding settings                : -m j -V 4 -q 2 -lowpass 17.6 --abr 128




Release notes:
enjoy!

Looking for:
75TB+ Archives
DUTCH/FLEMiSH Archives
                                                                                                    
Greets: CRBS EPiSODE FiCO FLS iLS KLASSiGER LiPSYNC MADE NODLABS RUNNER SPRiNTER      
   

                                                                    ASCII DONE BY XX^NFO 2oo9